Coordinates
version=1
nRows=26
nColumns=24
inDegrees=yes

Units are S.I. units (second, meters, Newtons, ...)
Angles are in degrees.

endheader
time	pelvis_tilt	pelvis_list	pelvis_rotation	pelvis_tx	pelvis_ty	pelvis_tz	hip_flexion_r	hip_adduction_r	hip_rotation_r	knee_angle_r	ankle_angle_r	subtalar_angle_r	mtp_angle_r	hip_flexion_l	hip_adduction_l	hip_rotation_l	knee_angle_l	ankle_angle_l	subtalar_angle_l	mtp_angle_l	lumbar_extension	lumbar_bending	lumbar_rotation
      0.75900000	      0.40777852	      0.84846267	     11.11103846	      0.03990048	      0.98741203	      0.22252799	     28.42359042	     -5.06909973	     -9.92182213	     -1.43602745	      9.46768973	     -6.46357189	      2.84977804	    -19.72405039	      0.94847718	     14.11933688	    -11.08162366	     16.95125498	     -6.24038149	     -0.06492641	     -3.36821417	     -2.56712994	    -10.16740001
      0.76316667	      0.41680824	      0.75721298	     11.33482006	      0.04625321	      0.98676878	      0.22286660	     28.42581190	     -5.04122444	     -9.90177686	     -2.13951619	      9.54100606	     -6.78870449	      2.85411117	    -19.88293590	      0.68436853	     14.00686860	    -11.43649638	     16.86544305	     -5.85999026	     -0.04223694	     -3.25454450	     -2.46167104	    -10.38323509
      0.76733333	      0.45338190	      0.66773053	     11.58679542	      0.05264380	      0.98621022	      0.22318079	     28.35617387	     -5.01107427	     -9.89590851	     -2.77330150	      9.51834652	     -7.19754388	      2.86633734	    -20.06757543	      0.41146673	     13.98677400	    -11.79317909	     16.66083155	     -5.68367720	     -0.01552487	     -3.15483019	     -2.36012978	    -10.51372158
      0.77150000	      0.47763914	      0.55213545	     11.79826448	      0.05912551	      0.98562727	      0.22360535	     28.28968028	     -4.92138900	     -9.79556140	     -3.36518657	      9.29541174	     -7.78892122	      2.90304890	    -20.24743818	      0.11701281	     13.91899081	    -12.12864796	     16.49020315	     -5.41675859	      0.06141886	     -3.05944889	     -2.22908620	    -10.79723944
      0.77566667	      0.51399743	      0.44158829	     12.02021103	      0.06563264	      0.98509158	      0.22402863	     28.19338385	     -4.83225764	     -9.72452764	     -3.92861899	      9.04285181	     -8.36540147	      2.97368120	    -20.41892473	     -0.17867147	     13.83566082	    -12.50308510	     16.29181985	     -5.18550074	      0.18911336	     -2.97084536	     -2.10778092	    -10.99439473
      0.77983333	      0.54972334	      0.32457066	     12.21571766	      0.07221025	      0.98456762	      0.22455221	     28.09165100	     -4.71167802	     -9.63694014	     -4.46292936	      8.71643297	     -8.97252269	      3.54237751	    -20.57887111	     -0.48518475	     13.65360058	    -12.89025961	     16.05017724	     -4.86054113	      1.10366078	     -2.85200432	     -2.02204000	    -11.02248341
      0.78400000	      0.57775195	      0.18730295	     12.45585894	      0.07882244	      0.98408794	      0.22497829	     27.98166565	     -4.59339578	     -9.65009220	     -4.97304762	      8.34789120	     -9.49988502	      3.62395428	    -20.73296768	     -0.81070377	     13.66849017	    -13.26380234	     15.74659489	     -4.77525430	      1.23594683	     -2.73491274	     -1.85260546	    -11.36297483
      0.78816667	      0.60496833	      0.04320971	     12.66049016	      0.08550179	      0.98361515	      0.22550290	     27.86733423	     -4.43893117	     -9.61023868	     -5.44422473	      7.85965006	    -10.12571184	      3.74914973	    -20.87499922	     -1.14245384	     13.57108860	    -13.65359979	     15.42106838	     -4.58263293	      1.43076558	     -2.59469281	     -1.70805520	    -11.52748187
      0.79233333	      0.65144963	     -0.12008053	     12.85532955	      0.09223041	      0.98318948	      0.22605730	     27.72949524	     -4.25061382	     -9.59170269	     -5.88838795	      7.29059730	    -10.74541326	      3.90829668	    -21.02906854	     -1.49809938	     13.44595898	    -14.04769554	     15.06963198	     -4.38660705	      1.67522841	     -2.46419754	     -1.53777400	    -11.68769160
      0.79650000	      0.68722822	     -0.27104734	     13.02963551	      0.09899064	      0.98277846	      0.22668109	     27.60585051	     -4.05868788	     -9.53441098	     -6.32010898	      6.61868657	    -11.42760327	      4.19523242	    -21.17077472	     -1.83747073	     13.30300366	    -14.43768068	     14.64919304	     -4.13902603	      2.10566388	     -2.32410923	     -1.40648032	    -11.83400385
      0.80066667	      0.69820883	     -0.46930365	     13.19552222	      0.10580497	      0.98233350	      0.22731544	     27.52477652	     -3.82507224	     -9.55653336	     -6.75513740	      5.90055202	    -12.00564402	      6.12703075	    -21.24186295	     -2.22062243	     13.05878592	    -14.89564627	     14.21202798	     -3.86536983	      4.96108695	     -2.11454216	     -1.19871351	    -11.75879814
      0.80483333	      0.76297791	     -0.66250475	     13.36225006	      0.11264335	      0.98202590	      0.22795009	     27.38101060	     -3.58050507	     -9.60262059	     -7.17154178	      5.12937047	    -12.58103642	      6.17461580	    -21.39612338	     -2.59838144	     12.95558279	    -15.29964604	     13.70877290	     -3.84976091	      5.06428626	     -1.99386631	     -1.00299642	    -12.07691361
      0.80900000	      0.79802800	     -0.87138450	     13.50018618	      0.11951474	      0.98168385	      0.22865699	     27.28443474	     -3.30771264	     -9.59373851	     -7.59398269	      4.29447081	    -13.21855197	      6.26245935	    -21.48951203	     -2.98331923	     12.74922344	    -15.75298502	     13.21549391	     -3.69663880	      5.23828776	     -1.81285589	     -0.79286223	    -12.16236245
      0.81316667	      0.83986016	     -1.08638596	     13.61804228	      0.12640119	      0.98138023	      0.22941206	     27.19532655	     -3.01664528	     -9.57439562	     -8.02993725	      3.42492057	    -13.84334833	      6.40011879	    -21.57638788	     -3.37088699	     12.50871393	    -16.22242492	     12.67282024	     -3.52349108	      5.50345231	     -1.64542279	     -0.58785290	    -12.24269743
      0.81733333	      0.88561113	     -1.32137034	     13.70806003	      0.13331927	      0.98108911	      0.23022302	     27.13541951	     -2.69842044	     -9.58908282	     -8.51569846	      2.56441587	    -14.37036267	      8.01184159	    -21.64542180	     -3.78056669	     12.16189483	    -16.71673169	     12.07378575	     -3.21229874	      8.53133459	     -1.46331260	     -0.34838250	    -12.16157280
      0.82150000	      0.91024487	     -1.57175239	     13.78717807	      0.14025708	      0.98082072	      0.23102167	     27.11348401	     -2.36761336	     -9.59162619	     -9.03101530	      1.74196150	    -14.82686862	      8.02965957	    -21.70104952	     -4.17213219	     11.96876018	    -17.19611657	     11.41405296	     -3.24388130	      8.61153766	     -1.26881042	     -0.06524739	    -12.32948425
      0.82566667	      0.96701030	     -1.80160368	     13.83700615	      0.14716346	      0.98062429	      0.23192180	     27.07113243	     -2.02829592	     -9.52099324	     -9.56348813	      0.87175444	    -15.40931551	      8.10583192	    -21.75627889	     -4.55477222	     11.62954487	    -17.73599572	     10.73659281	     -3.08086572	      8.85540690	     -1.10976046	      0.14218017	    -12.35373170
      0.82983333	      1.01553781	     -2.06484104	     13.86360452	      0.15410163	      0.98043379	      0.23284084	     27.07140132	     -1.65610160	     -9.48206778	    -10.15835249	      0.09124952	    -15.87832438	      8.21614084	    -21.78492987	     -4.95810404	     11.26267332	    -18.29873677	     10.03569078	     -2.93762455	      9.21580433	     -0.93680468	      0.41133621	    -12.34538704
      0.83400000	      1.05766755	     -2.35763032	     13.86520879	      0.16107781	      0.98024942	      0.23378266	     27.11406777	     -1.25431761	     -9.47309699	    -10.82513227	     -0.56880580	    -16.23289238	      8.32374485	    -21.79191234	     -5.37757204	     10.86486676	    -18.88271010	      9.31337830	     -2.86439670	      9.60057848	     -0.72076015	      0.73303065	    -12.31914547
      0.83816667	      1.14317412	     -2.62773558	     13.84608875	      0.16800608	      0.98016712	      0.23477902	     27.13671521	     -0.86344706	     -9.46911784	    -11.55475753	     -1.15778018	    -16.45226036	      9.44891581	    -21.82924831	     -5.78498562	     10.41562209	    -19.47469993	      8.39862400	     -2.71508949	     13.94671415	     -0.60950710	      1.02463020	    -12.30136462
      0.84233333	      1.18237409	     -2.88659675	     13.79676102	      0.17493231	      0.98005438	      0.23579049	     27.24411569	     -0.49363633	     -9.45890214	    -12.38021127	     -1.57887046	    -16.52494802	      9.44250958	    -21.80705775	     -6.14207667	     10.01293887	    -20.10585247	      7.50645613	     -2.71173225	     13.96082503	     -0.41798014	      1.30027185	    -12.27659410
      0.84650000	      1.22616547	     -3.19470858	     13.71345482	      0.18189825	      0.97994099	      0.23689543	     27.35033986	     -0.04196743	     -9.34385939	    -13.18544751	     -2.08179917	    -16.86318397	      9.43633802	    -21.76213008	     -6.54889395	      9.50541823	    -20.77986782	      6.65591161	     -2.62685211	     14.14233525	     -0.22783835	      1.62772588	    -12.13777151
      0.85066667	      1.29971340	     -3.49000794	     13.60950684	      0.18883848	      0.97990015	      0.23802146	     27.45098486	      0.40010633	     -9.26971484	    -14.06484672	     -2.41091784	    -16.98816232	      9.42723064	    -21.73288213	     -6.94231272	      8.96604789	    -21.47887780	      5.72031267	     -2.54178996	     14.49850251	     -0.08216570	      1.95624173	    -12.01574325
      0.85483333	      1.38528713	     -3.75345073	     13.48582566	      0.19573591	      0.97992388	      0.23920628	     27.54828881	      0.82090074	     -9.16817329	    -14.98818142	     -2.64245571	    -17.01163706	      9.26670268	    -21.70240390	     -7.30213703	      8.41766009	    -22.18876806	      4.59548427	     -2.49708269	     18.29147805	     -0.00439655	      2.22912874	    -11.94866693
      0.85900000	      1.46424974	     -4.03409070	     13.37156700	      0.20264964	      0.97996530	      0.24033139	     27.66067595	      1.23805904	     -9.15627154	    -15.93878729	     -2.80213432	    -16.98510807	      9.26330113	    -21.63837838	     -7.67211717	      7.89922241	    -22.94615389	      3.52053986	     -2.48441783	     18.29611209	      0.13560725	      2.54670605	    -11.91475603
      0.86316667	      1.54337713	     -4.31698390	     13.21371389	      0.20955824	      0.98001731	      0.24154643	     27.77685471	      1.68178195	     -9.08162568	    -16.89979665	     -2.88877840	    -16.93521162	      9.25671599	    -21.56075742	     -8.03433780	      7.32105064	    -23.73224405	      2.40670865	     -2.46478725	     18.32420175	      0.24704982	      2.85664343	    -11.84242117
